<?xml version="1.0" encoding="UTF-8"?>
<svg id="Layer_1" data-name="Layer 1" xmlns="http://www.w3.org/2000/svg" viewBox="0 0 46.19 84.48">
  <defs>
    <style>
      .cls-1 {
        fill: #49310f;
      }

      .cls-2 {
        fill: #89b741;
      }
    </style>
  </defs>
  <rect class="cls-1" x="17.45" y="32.46" width="11.29" height="52.02"/>
  <path class="cls-2" d="M5.35,12.5l1.25-.66-.06-1.41C6.23,2.37,15.08-2.74,21.9,1.56l1.2.76,1.2-.76c6.82-4.3,15.67.8,15.35,8.86l-.06,1.41,1.25.66c7.14,3.75,7.14,13.97,0,17.72l-1.25.66.06,1.41c.32,8.06-8.53,13.17-15.35,8.86l-1.2-.76-1.2.76c-6.82,4.3-15.67-.8-15.35-8.86l.06-1.41-1.25-.66c-7.14-3.75-7.14-13.97,0-17.72Z"/>
</svg>